<svg xmlns="http://www.w3.org/2000/svg" xmlns:xlink="http://www.w3.org/1999/xlink" viewBox="0 0 72.001 90"><defs><style>.a{fill:url(#a);}</style><linearGradient id="a" x1="0.5" x2="0.5" y2="1" gradientUnits="objectBoundingBox"><stop offset="0" stop-color="#005bea"/><stop offset="1" stop-color="#00c6fb"/></linearGradient></defs><path class="a" d="M5,44.3A8.374,8.374,0,0,0,3.512,49.17,9.669,9.669,0,0,0,4.823,54a9.064,9.064,0,0,0,8.469,4.7c-.019.23-.03.462-.03.7a8.122,8.122,0,0,0,.377,2.433L3.212,75.249v.008a3,3,0,0,0,3.15,4.729l9.172-2.457a1.51,1.51,0,0,1,1.152.15,1.467,1.467,0,0,1,.695.913l2.463,9.185a2.963,2.963,0,0,0,2.7,2.206h.213a2.985,2.985,0,0,0,2.777-1.859l6.847-16.838a9.71,9.71,0,0,0,6.882.139l6.79,16.713A2.958,2.958,0,0,0,48.829,90h.2a2.965,2.965,0,0,0,2.725-2.221l2.463-9.187a1.5,1.5,0,0,1,1.835-1.062l9.176,2.459a3,3,0,0,0,3.15-4.739L58.232,62.22a8.12,8.12,0,0,0,.509-2.82c0-.234-.01-.466-.03-.7A9.073,9.073,0,0,0,67.179,54a9.66,9.66,0,0,0,1.313-4.832A8.381,8.381,0,0,0,67,44.3a9.4,9.4,0,0,0,0-16.609A9.125,9.125,0,0,0,67.178,18a9.108,9.108,0,0,0-8.472-4.7A9.079,9.079,0,0,0,54,4.823,9.288,9.288,0,0,0,44.3,5,9.394,9.394,0,0,0,27.7,5,9.287,9.287,0,0,0,18,4.822a9.078,9.078,0,0,0-4.7,8.47A9.1,9.1,0,0,0,4.82,18,9.123,9.123,0,0,0,5,27.693,9.394,9.394,0,0,0,5,44.3ZM22.736,87l-2.457-9.171a4.5,4.5,0,0,0-5.516-3.2L5.579,77.1v-.009L15.193,64.72A9.91,9.91,0,0,0,18,67.182a9.117,9.117,0,0,0,9.684-.175,8.113,8.113,0,0,0,2.081,2.743ZM66,77.1l-9.189-2.463A4.5,4.5,0,0,0,51.3,77.822L48.836,87,41.915,70.011a8.154,8.154,0,0,0,2.4-3,9.126,9.126,0,0,0,9.7.17,10.049,10.049,0,0,0,2.593-2.164L66.022,77.1ZM8.051,30a1.5,1.5,0,0,0,.735-2.793c-2.382-1.4-3-4.862-1.368-7.7A6.181,6.181,0,0,1,12.6,16.261a4.237,4.237,0,0,1,2.169.561,1.5,1.5,0,0,0,2.059-2.037c-1.378-2.418-.179-5.722,2.672-7.366a6.648,6.648,0,0,1,3.33-.908,4.986,4.986,0,0,1,4.383,2.283A1.5,1.5,0,0,0,30,8.051,5.653,5.653,0,0,1,36.017,3,5.644,5.644,0,0,1,42,8.051a1.5,1.5,0,0,0,2.787.75A4.986,4.986,0,0,1,49.172,6.51a6.656,6.656,0,0,1,3.33.909c2.85,1.65,4.05,4.95,2.671,7.365a1.5,1.5,0,0,0,2.06,2.037,4.234,4.234,0,0,1,2.169-.561A6.174,6.174,0,0,1,64.58,19.5c1.631,2.85,1.02,6.31-1.362,7.712A1.5,1.5,0,0,0,63.953,30,5.654,5.654,0,0,1,69,36.015,5.644,5.644,0,0,1,63.953,42a1.5,1.5,0,0,0-.75,2.788,4.981,4.981,0,0,1,2.289,4.381,6.656,6.656,0,0,1-.909,3.33c-1.642,2.85-4.95,4.05-7.364,2.67a1.5,1.5,0,0,0-2.039,2.059,4.249,4.249,0,0,1,.561,2.17,5.361,5.361,0,0,1-.58,2.382,6.66,6.66,0,0,1-2.659,2.8c-2.85,1.631-6.312,1.017-7.712-1.364A1.5,1.5,0,0,0,42,63.945a5.008,5.008,0,0,1-2.677,4.2,6.974,6.974,0,0,1-6.924-.172A4.927,4.927,0,0,1,30,63.954a1.5,1.5,0,0,0-2.793-.74c-1.4,2.383-4.86,3-7.706,1.368A6.679,6.679,0,0,1,16.709,61.5a5.293,5.293,0,0,1-.45-2.1,4.256,4.256,0,0,1,.561-2.17,1.5,1.5,0,0,0-2.039-2.059c-2.418,1.377-5.722.175-7.365-2.672a6.658,6.658,0,0,1-.907-3.329,4.98,4.98,0,0,1,2.282-4.381A1.5,1.5,0,0,0,8.042,42,5.654,5.654,0,0,1,3,35.985,5.645,5.645,0,0,1,8.051,30Zm0,0" transform="translate(0)"/><path class="a" d="M92.278,116.27a24,24,0,1,0-24-24A24,24,0,0,0,92.278,116.27Zm0-45a21,21,0,1,1-21,21A21,21,0,0,1,92.278,71.27Zm0,0" transform="translate(-56.276 -56.269)"/><path class="a" d="M196.277,214.27a1.5,1.5,0,0,0,1.5,1.5,18.019,18.019,0,0,0,18-18,1.5,1.5,0,0,0-3,0,15.017,15.017,0,0,1-15,15,1.5,1.5,0,0,0-1.5,1.5Zm0,0" transform="translate(-161.775 -161.769)"/><path class="a" d="M120.411,105.4a1.5,1.5,0,0,0,0-3,18.02,18.02,0,0,0-18,18,1.5,1.5,0,1,0,3,0,15.016,15.016,0,0,1,15-15Zm0,0" transform="translate(-84.409 -84.402)"/><path class="a" d="M171.2,138.09a1.155,1.155,0,0,0-.034-.168,1.238,1.238,0,0,0-.192-.576,1.212,1.212,0,0,0-.074-.15c-.021-.029-.054-.043-.076-.069a1.523,1.523,0,0,0-.231-.205,1.631,1.631,0,0,0-.794-.3c-.034,0-.065-.02-.1-.02a1.464,1.464,0,0,0-.163.034,1.438,1.438,0,0,0-.3.061,1.487,1.487,0,0,0-.275.132,1.314,1.314,0,0,0-.15.073l-6,4.5a1.5,1.5,0,1,0,1.8,2.4l3.588-2.712v16.5h-3a1.5,1.5,0,0,0,0,3h9a1.5,1.5,0,1,0,0-3h-3Zm0,0" transform="translate(-133.699 -112.589)"/></svg>