<svg xmlns="http://www.w3.org/2000/svg" xmlns:xlink="http://www.w3.org/1999/xlink" viewBox="0 0 90 90"><defs><style>.a{fill:url(#a);}</style><linearGradient id="a" x1="0.5" x2="0.5" y2="1" gradientUnits="objectBoundingBox"><stop offset="0" stop-color="#005bea"/><stop offset="1" stop-color="#00c6fb"/></linearGradient></defs><g transform="translate(0 0)"><g transform="translate(0)"><path class="a" d="M1.539,96.868A1.58,1.58,0,0,0,2.6,96.432a1.522,1.522,0,0,0,0-2.13l-.225-.18a1.114,1.114,0,0,0-.27-.135.944.944,0,0,0-.271-.09,2.189,2.189,0,0,0-.3-.03A1.577,1.577,0,0,0,.474,94.3a1.55,1.55,0,0,0,0,2.13,1.529,1.529,0,0,0,.494.315,1.509,1.509,0,0,0,.571.12Zm0,0" transform="translate(-0.039 -77.367)"/><path class="a" d="M84,0H6A6,6,0,0,0,0,6v6a1.5,1.5,0,1,0,3,0V6A3,3,0,0,1,6,3H84a3,3,0,0,1,3,3V66a3,3,0,0,1-3,3H6a3,3,0,0,1-3-3V24a1.5,1.5,0,1,0-3,0V66a6,6,0,0,0,6,6H29.512l-2.144,7.5H27A7.509,7.509,0,0,0,19.5,87a3,3,0,0,0,3,3h45a3,3,0,0,0,3-3A7.509,7.509,0,0,0,63,79.5h-.367L60.489,72H84a6,6,0,0,0,6-6V6a6,6,0,0,0-6-6ZM67.5,87h-45A4.5,4.5,0,0,1,27,82.5H63A4.508,4.508,0,0,1,67.5,87Zm-7.99-7.5H30.489L32.631,72H57.369Zm0,0" transform="translate(0)"/><path class="a" d="M112.133,83.633v-45a4.5,4.5,0,0,0-4.5-4.5h-69a4.5,4.5,0,0,0-4.5,4.5v45a4.5,4.5,0,0,0,4.5,4.5h69A4.5,4.5,0,0,0,112.133,83.633Zm-75,0v-45a1.5,1.5,0,0,1,1.5-1.5h69a1.5,1.5,0,0,1,1.5,1.5v45a1.5,1.5,0,0,1-1.5,1.5h-69A1.5,1.5,0,0,1,37.133,83.633Zm0,0" transform="translate(-28.133 -28.133)"/><path class="a" d="M206.3,358.4a1.5,1.5,0,0,0,0,3h15a1.5,1.5,0,0,0,0-3Zm0,0" transform="translate(-168.801 -295.398)"/><path class="a" d="M69.77,89.263a1.5,1.5,0,0,0,1.155-.54l15-18a1.5,1.5,0,1,0-2.307-1.92l-15,18a1.5,1.5,0,0,0,1.152,2.46Zm0,0" transform="translate(-56.269 -56.263)"/><path class="a" d="M96.1,68.6a1.5,1.5,0,0,0-2.109.222l-25.5,31.5a1.5,1.5,0,1,0,2.331,1.887l25.5-31.5A1.5,1.5,0,0,0,96.1,68.6Zm0,0" transform="translate(-56.156 -56.27)"/><path class="a" d="M161.814,111.414l-16.5,21a1.5,1.5,0,1,0,2.358,1.854l16.5-21a1.5,1.5,0,1,0-2.359-1.855Zm0,0" transform="translate(-119.494 -91.341)"/></g></g></svg>