<svg xmlns="http://www.w3.org/2000/svg" xmlns:xlink="http://www.w3.org/1999/xlink" viewBox="0 0 82.323 95"><defs><style>.a{fill:url(#a);}</style><linearGradient id="a" x1="0.5" x2="0.5" y2="1" gradientUnits="objectBoundingBox"><stop offset="0" stop-color="#005bea"/><stop offset="1" stop-color="#00c6fb"/></linearGradient></defs><g transform="translate(-0.464 0)"><g transform="translate(0.464 0)"><path class="a" d="M22.766,17.342a11.968,11.968,0,0,0-1.44.792l-2.309,1.405c-.754.491-1.454,1.064-2.182,1.593a45.52,45.52,0,0,0-4.094,3.523l-1.826,1.991-.908,1L9.2,28.728,7.577,30.9,6.172,33.213a41.159,41.159,0,1,0,37.183-20.5V9.5h3.168a4.751,4.751,0,0,0,0-9.5h-9.5a4.751,4.751,0,1,0,0,9.5h3.168v3.242a34.035,34.035,0,0,0-4.972.494,1.524,1.524,0,0,0-1.314,1.8,1.661,1.661,0,0,0,1.817,1.325,43.422,43.422,0,0,1,6.053-.529A38.011,38.011,0,1,1,3.76,53.848,40.229,40.229,0,0,1,6.673,39.257c.317-.765.713-1.5,1.064-2.255a16.254,16.254,0,0,1,1.175-2.2l1.293-2.133,1.489-2,.746-1,.841-.924,1.685-1.84a41.8,41.8,0,0,1,3.782-3.25c.673-.488,1.316-1.022,2.013-1.472l2.134-1.3a10.105,10.105,0,0,1,1.329-.737,1.582,1.582,0,0,0-1.459-2.808ZM35.436,4.751A1.584,1.584,0,0,1,37.02,3.167h9.5a1.584,1.584,0,0,1,0,3.168h-9.5A1.584,1.584,0,0,1,35.436,4.751Zm0,0" transform="translate(-0.631 0)"/><path class="a" d="M147.594,82.106a1.565,1.565,0,0,0,1.169.06,1.9,1.9,0,0,0,.893-.774l.111-.274a1.2,1.2,0,0,0,.057-.317,1.022,1.022,0,0,0,.011-.3,2.588,2.588,0,0,0-.057-.317,1.663,1.663,0,0,0-.768-.961,1.435,1.435,0,0,0-.616-.173,1.725,1.725,0,0,0-1.567.926,1.569,1.569,0,0,0-.14.607,1.538,1.538,0,0,0,.092.608A1.726,1.726,0,0,0,147.594,82.106Zm0,0" transform="translate(-119.577 -64.38)"/><path class="a" d="M51.975,107.032c-.025.016-.039.041-.065.057a35.1,35.1,0,0,0-12.632,12.632c-.016.025-.041.039-.057.065s-.014.056-.027.083a34.716,34.716,0,0,0,0,34.685c.013.027.013.056.027.083s.054.065.078.1a35.1,35.1,0,0,0,12.612,12.6c.025.016.039.041.065.057s.081.03.12.049a34.718,34.718,0,0,0,34.6,0c.04-.02.083-.028.12-.049s.04-.041.065-.057a35.1,35.1,0,0,0,12.6-12.6c.024-.035.056-.062.078-.1s.015-.055.028-.083a34.716,34.716,0,0,0,0-34.685c-.013-.027-.013-.055-.028-.082s-.041-.04-.057-.064a35.088,35.088,0,0,0-12.632-12.634c-.025-.016-.04-.041-.065-.057s-.055-.014-.082-.027a34.717,34.717,0,0,0-34.685,0c-.012.02-.042.02-.07.033Zm44,13-1.309.755a1.584,1.584,0,1,0,1.584,2.743l1.31-.757a31.426,31.426,0,0,1,3.431,12.848h-4.67a1.584,1.584,0,0,0,0,3.168h4.67a31.429,31.429,0,0,1-3.431,12.848l-1.31-.758a1.584,1.584,0,1,0-1.584,2.743l1.309.755a31.88,31.88,0,0,1-9.4,9.4l-.755-1.309a1.584,1.584,0,1,0-2.743,1.584l.758,1.31A31.44,31.44,0,0,1,70.981,168.8v-4.67a1.584,1.584,0,0,0-3.168,0v4.67a31.437,31.437,0,0,1-12.848-3.431l.757-1.31a1.584,1.584,0,1,0-2.743-1.584l-.755,1.309a31.869,31.869,0,0,1-9.4-9.4l1.308-.755a1.584,1.584,0,1,0-1.584-2.743l-1.309.758A31.43,31.43,0,0,1,37.8,138.792h4.67a1.584,1.584,0,1,0,0-3.168H37.8a31.427,31.427,0,0,1,3.432-12.848l1.309.757a1.584,1.584,0,1,0,1.584-2.743l-1.308-.755a31.869,31.869,0,0,1,9.4-9.4l.755,1.309a1.584,1.584,0,1,0,2.743-1.584l-.757-1.309a31.427,31.427,0,0,1,12.848-3.432v4.67a1.584,1.584,0,1,0,3.168,0v-4.67a31.43,31.43,0,0,1,12.848,3.432l-.758,1.309a1.584,1.584,0,1,0,2.743,1.584l.755-1.309a31.881,31.881,0,0,1,9.4,9.4Zm0,0" transform="translate(-28.256 -83.359)"/><path class="a" d="M203.027,188.381V172.252a1.584,1.584,0,0,0-3.168,0v16.129a4.751,4.751,0,1,0,3.168,0Zm-1.584,6.044a1.584,1.584,0,1,1,1.584-1.584A1.584,1.584,0,0,1,201.443,194.425Zm0,0" transform="translate(-160.302 -138.992)"/></g></g></svg>