<svg xmlns="http://www.w3.org/2000/svg" xmlns:xlink="http://www.w3.org/1999/xlink" viewBox="0 0 90 89.948"><defs><style>.a{fill:url(#a);}</style><linearGradient id="a" x1="0.5" x2="0.5" y2="1" gradientUnits="objectBoundingBox"><stop offset="0" stop-color="#005bea"/><stop offset="1" stop-color="#00c6fb"/></linearGradient></defs><g transform="translate(0.001 -0.153)"><g transform="translate(-0.001 0.153)"><path class="a" d="M12.518,316.11a1.5,1.5,0,0,0-.676-.888l-.262-.114a1.153,1.153,0,0,0-.3-.064.96.96,0,0,0-.283-.021,2.106,2.106,0,0,0-.3.043,1.527,1.527,0,0,0-.924.686,1.617,1.617,0,0,0,.544,2.112,1.632,1.632,0,0,0,1.168.1,1.576,1.576,0,0,0,1.035-1.849Zm0,0" transform="translate(-7.9 -259.706)"/><path class="a" d="M0,45.128l.15,3.1.09,1.55.232,1.534a1.487,1.487,0,0,0,1.711,1.277A1.522,1.522,0,0,0,3.443,50.9l-.22-1.43-.075-1.447L3,45.128A41.807,41.807,0,0,1,14.273,16.547l2.12,2.119a39.15,39.15,0,0,0-5.109,6.9c-.018.027-.048.044-.065.073s-.016.063-.032.095a38.828,38.828,0,0,0,0,38.788c.015.031.014.064.032.094s.06.073.089.114a39.257,39.257,0,0,0,14.1,14.092c.029.018.044.048.073.065.045.021.091.04.138.057a38.828,38.828,0,0,0,38.7,0c.047-.016.093-.035.138-.056s.045-.047.073-.065a39.247,39.247,0,0,0,14.1-14.092,1.372,1.372,0,0,0,.089-.114c.024-.042.016-.062.032-.094a38.828,38.828,0,0,0,0-38.788.836.836,0,0,0-.032-.094c-.018-.03-.046-.045-.064-.073a39.25,39.25,0,0,0-14.129-14.13c-.028-.018-.043-.048-.073-.065s-.063-.016-.095-.032a38.826,38.826,0,0,0-38.787,0c-.032.015-.065.014-.095.032s-.045.047-.073.065a39.185,39.185,0,0,0-6.9,5.109l-2.124-2.116A41.963,41.963,0,1,1,44.974,87.1a44.805,44.805,0,0,1-11.619-1.665,40.945,40.945,0,0,1-10.7-4.805A40.274,40.274,0,0,1,13.7,73.057,19.628,19.628,0,0,1,11.817,70.8c-.581-.79-1.192-1.561-1.75-2.368a45.181,45.181,0,0,1-2.883-5.125L6.557,62a1.545,1.545,0,0,0-1.949-.781,1.467,1.467,0,0,0-.8,1.988l.673,1.4A47.871,47.871,0,0,0,7.57,70.1c.6.865,1.249,1.691,1.871,2.538a21.923,21.923,0,0,0,2.02,2.417,43.3,43.3,0,0,0,9.594,8.116,43.966,43.966,0,0,0,11.477,5.149A47.8,47.8,0,0,0,44.974,90.1a44.973,44.973,0,1,0-30.7-77.793l-2.118-2.12,1.292-5.172a1.5,1.5,0,0,0-2.908-.728L9.682,7.717l-1.97-1.97,1.2-3.619A1.5,1.5,0,0,0,6.063,1.18l-.721,2.2L2.56.594A1.5,1.5,0,0,0,.44,2.714L3.223,5.5l-2.2.732a1.5,1.5,0,1,0,.948,2.849l3.619-1.2,1.97,1.96-3.428.857a1.5,1.5,0,1,0,.73,2.908l5.171-1.292,2.118,2.118A44.79,44.79,0,0,0,0,45.128ZM24.893,27.167a26.834,26.834,0,0,0-6.827,16.461H9.033A35.721,35.721,0,0,1,13.1,28.46l3.856,2.226a1.5,1.5,0,1,0,1.5-2.6l-3.85-2.223a36.4,36.4,0,0,1,3.9-5.082Zm6.352,6.352a17.85,17.85,0,0,0-4.26,11.609,1.5,1.5,0,0,0,3,0,14.874,14.874,0,0,1,3.383-9.488l7.046,7.046-2.634-.526a1.5,1.5,0,0,0-.587,2.938l7.5,1.5a1.4,1.4,0,0,0,.288.03,1.49,1.49,0,0,0,.533-.1c.054-.021.1-.059.15-.084a1.436,1.436,0,0,0,.27-.15c.019-.015.025-.039.044-.054s.046-.025.066-.045a1.419,1.419,0,0,0,.181-.273,1.149,1.149,0,0,0,.257-.79v-7.5a1.5,1.5,0,0,0-3,0v3.877l-7.989-7.988a14.991,14.991,0,0,1,20.088,1.007,1.5,1.5,0,1,0,2.12-2.12A17.968,17.968,0,0,0,33.365,31.4l-4.233-4.233a23.855,23.855,0,0,1,14.344-5.947v1.423a1.5,1.5,0,0,0,3,0V21.219a23.985,23.985,0,0,1,22.41,22.41H67.461a1.5,1.5,0,0,0,0,3h1.423a23.985,23.985,0,0,1-22.41,22.41V67.615a1.5,1.5,0,1,0-3,0v1.423a23.987,23.987,0,0,1-22.41-22.41h1.423a1.5,1.5,0,1,0,0-3H21.065a23.859,23.859,0,0,1,5.947-14.343ZM14.61,64.39l3.85-2.223a1.5,1.5,0,1,0-1.5-2.6L13.1,61.8a35.721,35.721,0,0,1-4.071-15.17h9.034A26.974,26.974,0,0,0,43.475,72.036v9.034A35.721,35.721,0,0,1,28.305,77l2.226-3.856a1.5,1.5,0,1,0-2.6-1.5l-2.223,3.85a36.265,36.265,0,0,1-11.1-11.1Zm49.62,11.1-2.223-3.85a1.5,1.5,0,1,0-2.6,1.5L61.636,77a35.714,35.714,0,0,1-15.163,4.071V72.035A26.974,26.974,0,0,0,71.881,46.627h9.034A35.721,35.721,0,0,1,76.843,61.8l-3.855-2.226a1.5,1.5,0,1,0-1.5,2.6l3.85,2.223a36.257,36.257,0,0,1-11.1,11.1Zm11.1-49.62L71.483,28.1a1.5,1.5,0,1,0,1.5,2.6l3.855-2.226a35.715,35.715,0,0,1,4.078,15.163H71.881A26.974,26.974,0,0,0,46.473,18.221V9.187a35.721,35.721,0,0,1,15.169,4.071l-2.226,3.855a1.5,1.5,0,1,0,2.6,1.5l2.223-3.85a36.25,36.25,0,0,1,11.1,11.1Zm-49.62-11.1,2.223,3.85a1.5,1.5,0,1,0,2.6-1.5l-2.226-3.861a35.721,35.721,0,0,1,15.17-4.071v9.034a26.834,26.834,0,0,0-16.462,6.827l-6.383-6.383a36.322,36.322,0,0,1,5.082-3.9Zm0,0" transform="translate(0.001 -0.153)"/><path class="a" d="M248.979,255.125a6,6,0,0,0,6-6,1.5,1.5,0,1,0-3,0,3,3,0,0,1-3,3,1.5,1.5,0,0,0,0,3Zm0,0" transform="translate(-204.004 -204.153)"/><path class="a" d="M194.352,267.118a17.989,17.989,0,0,0,17.99-17.989,1.5,1.5,0,0,0-3,0,14.991,14.991,0,0,1-25.591,10.6,1.5,1.5,0,0,0-2.12,2.12,17.872,17.872,0,0,0,12.72,5.269Zm0,0" transform="translate(-149.377 -204.154)"/></g></g></svg>