<svg xmlns="http://www.w3.org/2000/svg" xmlns:xlink="http://www.w3.org/1999/xlink" viewBox="0 0 90 89.901"><defs><style>.a{fill:url(#a);}</style><linearGradient id="a" x1="0.5" x2="0.5" y2="1" gradientUnits="objectBoundingBox"><stop offset="0" stop-color="#005bea"/><stop offset="1" stop-color="#00c6fb"/></linearGradient></defs><g transform="translate(-0.001 -0.009)"><path class="a" d="M82.5,22.547V4.5A4.5,4.5,0,0,0,75.253.943L69.475,5.385a31.453,31.453,0,0,1-11.7,5.608,4.476,4.476,0,0,0-8,.918H19.5A19.4,19.4,0,0,0,1.186,24.759a1.416,1.416,0,0,0-.075.21A19.721,19.721,0,0,0,0,31.411c0,.341.015.682.032,1,.018.347.037.7.081.976v.021c.033.341.071.681.123.933.052.378.122.75.211,1.136l.186.75a18.982,18.982,0,0,0,2.7,5.834c.082.13.172.255.261.375l.122.168A19.98,19.98,0,0,0,8,46.88q.225.178.472.353a20.173,20.173,0,0,0,3.961,2.124L13.8,59.339a1.5,1.5,0,1,0,2.972-.409L15.6,50.389a19.722,19.722,0,0,0,4.425.522h7.2l2.792,16.747A1.5,1.5,0,0,0,31.5,68.91a1.442,1.442,0,0,0,.249-.021,1.5,1.5,0,0,0,1.231-1.726L30.27,50.911h3.408L35.327,61.6,37.95,81.721a4.5,4.5,0,0,1-4.44,5.188H31.08A11.916,11.916,0,0,1,19.23,76.739l-.816-5.922a1.5,1.5,0,0,0-2.971.409l.817,5.943a.117.117,0,0,1,0,.022A14.9,14.9,0,0,0,31.08,89.909h2.429A7.5,7.5,0,0,0,40.922,81.3l-2.4-18.391h2.4a7.5,7.5,0,0,0,7.4-8.73l-.542-3.27h2a4.476,4.476,0,0,0,8.007.918,31.474,31.474,0,0,1,11.7,5.611l5.77,4.438A4.5,4.5,0,0,0,82.5,58.321V40.278a8.989,8.989,0,0,0,0-17.731ZM9.8,44.482a17.008,17.008,0,0,1-3.633-3.621l-.15-.2c-.051-.069-.1-.139-.179-.257a16.1,16.1,0,0,1-2.3-4.93l-.175-.7c-.063-.271-.114-.552-.162-.887-.039-.264-.078-.529-.114-.864a.451.451,0,0,0-.009-.109H6a1.5,1.5,0,1,0,0-3H3.075a16.732,16.732,0,0,1,.557-3H9a1.5,1.5,0,1,0,0-3H4.8A16.363,16.363,0,0,1,15,15.54V47.12c-.231-.072-.463-.134-.693-.216l-.078-.024c-.507-.184-.993-.418-1.478-.65-.2-.094-.414-.166-.611-.268a17.2,17.2,0,0,1-1.949-1.186c-.128-.088-.24-.176-.392-.294Zm8.2,3.29V20.911H36a1.5,1.5,0,0,0,0-3H18V14.985c.5-.045,1-.073,1.5-.073h30v33H20.025A16.647,16.647,0,0,1,18,47.771ZM44.352,58.319a4.49,4.49,0,0,1-3.433,1.591H38.1l-1.384-9h8.022l.626,3.762a4.5,4.5,0,0,1-1.01,3.647ZM54,50.91a1.5,1.5,0,0,1-1.5-1.5v-36a1.5,1.5,0,1,1,3,0v36A1.5,1.5,0,0,1,54,50.91Zm25.5,7.41a1.5,1.5,0,0,1-2.416,1.18l-5.77-4.437A34.495,34.495,0,0,0,58.5,48.917V13.905a34.5,34.5,0,0,0,12.81-6.15l5.776-4.443A1.5,1.5,0,0,1,79.5,4.5Zm5.755-22.666A6.022,6.022,0,0,1,82.5,37.2V25.624a6,6,0,0,1,2.755,10.03Zm0,0" transform="translate(0 0)"/><path class="a" d="M84.184,364.612a.959.959,0,0,0,.281.052,2.078,2.078,0,0,0,.3-.012,1.57,1.57,0,0,0,1-.576,1.479,1.479,0,0,0-.823-2.354,1.487,1.487,0,0,0-1.837,1.065,1.5,1.5,0,0,0,.55,1.58l.247.15A1.14,1.14,0,0,0,84.184,364.612Zm0,0" transform="translate(-68.452 -298.09)"/><path class="a" d="M419.633,59.2a1.5,1.5,0,0,0-1.5,1.5v39a1.5,1.5,0,1,0,3,0v-39a1.5,1.5,0,0,0-1.5-1.5Zm0,0" transform="translate(-344.635 -48.783)"/></g></svg>