<svg xmlns="http://www.w3.org/2000/svg" xmlns:xlink="http://www.w3.org/1999/xlink" viewBox="0 0 90 90"><defs><style>.a{fill:url(#a);}</style><linearGradient id="a" x1="0.5" x2="0.5" y2="1" gradientUnits="objectBoundingBox"><stop offset="0" stop-color="#005bea"/><stop offset="1" stop-color="#00c6fb"/></linearGradient></defs><g transform="translate(0 0)"><g transform="translate(0 -0.001)"><path class="a" d="M86.572,21.07c-.365.99-.528,2.04-.8,3.057-.206,1.033-.309,2.087-.463,3.129-.726,8.169,1.116,13.44,4.769,20.312a42.26,42.26,0,0,0,3.861,5.691c.989,1.3,1.921,2.52,2.75,3.828a23.251,23.251,0,0,1,3.45,9.774,5.963,5.963,0,0,0,1.545,10.927V84a5.992,5.992,0,0,0,2.81,5.063,1.5,1.5,0,0,0,.282.15,5.908,5.908,0,0,0,2.908.788h15a6,6,0,0,0,6-6V77.787A5.961,5.961,0,0,0,130.2,66.836a23.284,23.284,0,0,1,3.45-9.75c.829-1.308,1.761-2.532,2.749-3.828a42.258,42.258,0,0,0,3.861-5.691c3.652-6.87,5.5-12.141,4.771-20.312A30.161,30.161,0,0,0,115.185,0h-.047A30.206,30.206,0,0,0,93.886,9.045a14.33,14.33,0,0,0-1.088,1.14,1.5,1.5,0,0,0,.15,2.146,1.517,1.517,0,0,0,2.085-.15,12.272,12.272,0,0,1,.981-1.028,26.85,26.85,0,0,1,46.022,16.368c.663,7.465-.972,12.134-4.431,18.636a39.162,39.162,0,0,1-3.6,5.282c-.983,1.29-2,2.624-2.9,4.041A26.3,26.3,0,0,0,127.274,66h-6.088V42h4.5a6,6,0,1,0,0-12h-1.5a6,6,0,0,0-6,6v3h-6V36a6,6,0,0,0-6-6h-1.5a6,6,0,1,0,0,12h4.5V66h-6.123A26.312,26.312,0,0,0,99.224,55.48c-.9-1.417-1.914-2.751-2.9-4.041a39.224,39.224,0,0,1-3.6-5.282c-3.459-6.5-5.1-11.172-4.431-18.636.15-.935.233-1.878.417-2.8.249-.91.385-1.854.718-2.742a1.528,1.528,0,0,0-.946-1.875,1.483,1.483,0,0,0-1.914.97ZM121.185,36a3,3,0,0,1,3-3h1.5a3,3,0,1,1,0,6h-4.5Zm-15.7,50.019a2.976,2.976,0,0,1-.8-2.019V78h14.437ZM125.686,84a3,3,0,0,1-3,3H109.734l15.309-9h.642Zm-21-45a3,3,0,1,1,0-6h1.5a3,3,0,0,1,3,3v3Zm7.5,3h6V66h-6Zm15,27a3,3,0,1,1,0,6h-24a3,3,0,1,1,0-6Zm0,0" transform="translate(-70.185 0.001)"/><path class="a" d="M109.2,83.247a1.544,1.544,0,0,0-.409-.406,1.5,1.5,0,0,0-1.138-.2,1.616,1.616,0,0,0-1.095,1.918l.106.266a1.062,1.062,0,0,0,.174.246.935.935,0,0,0,.2.2,2.11,2.11,0,0,0,.255.163,1.711,1.711,0,0,0,1.148.111,1.556,1.556,0,0,0,.513-.261,1.433,1.433,0,0,0,.5-1.52A1.867,1.867,0,0,0,109.2,83.247Zm0,0" transform="translate(-87.788 -68.085)"/><path class="a" d="M121.373,57.547h.134a1.5,1.5,0,0,0,1.5-1.367A21.368,21.368,0,0,1,143.9,37.133a1.5,1.5,0,1,0,0-3A24.426,24.426,0,0,0,120.011,55.92a1.5,1.5,0,0,0,1.362,1.627Zm0,0" transform="translate(-98.911 -28.133)"/><path class="a" d="M0,163.633a1.5,1.5,0,0,0,1.5,1.5H9a1.5,1.5,0,1,0,0-3H1.5A1.5,1.5,0,0,0,0,163.633Zm0,0" transform="translate(0 -133.633)"/><path class="a" d="M40.366,264.757l-6.495,3.75a1.5,1.5,0,1,0,1.5,2.6l6.495-3.75a1.5,1.5,0,0,0-1.5-2.6Zm0,0" transform="translate(-27.293 -218.056)"/><path class="a" d="M425.033,265.282a1.5,1.5,0,0,0,.549,2.049l6.495,3.75a1.5,1.5,0,0,0,1.5-2.6l-6.5-3.75A1.5,1.5,0,0,0,425.033,265.282Zm0,0" transform="translate(-350.154 -218.032)"/><path class="a" d="M461.266,162.133h-7.5a1.5,1.5,0,1,0,0,3h7.5a1.5,1.5,0,1,0,0-3Zm0,0" transform="translate(-372.766 -133.633)"/><path class="a" d="M434.076,39.149a1.5,1.5,0,0,0-2.049-.549l-6.495,3.75a1.5,1.5,0,1,0,1.5,2.6l6.495-3.75a1.5,1.5,0,0,0,.549-2.049Zm0,0" transform="translate(-350.106 -31.649)"/><path class="a" d="M41.936,42.373l-6.495-3.75a1.5,1.5,0,0,0-1.5,2.6l6.495,3.75a1.5,1.5,0,1,0,1.5-2.6Zm0,0" transform="translate(-27.364 -31.673)"/></g></g></svg>