<svg xmlns="http://www.w3.org/2000/svg" viewBox="0 0 79.425 114.75"><defs><style>.a{fill:#fff;stroke:#005bea;stroke-width:3px;}</style></defs><path class="a" d="M45.3-110.7q11.1,0,19.05,3.825a28.027,28.027,0,0,1,12.075,10.5A28.09,28.09,0,0,1,80.55-81.3q0,10.35-5.325,16.65A23.094,23.094,0,0,1,61.95-56.7v.75Q82.5-49.35,82.5-30.3a31.441,31.441,0,0,1-4.2,16.275,28.4,28.4,0,0,1-12.225,11.1Q58.05,1.05,46.8,1.05q-18.3,0-29.025-9T6.15-35.4H31.2q.3,7.05,3.9,11.1t10.5,4.05a11.705,11.705,0,0,0,8.775-3.3A11.716,11.716,0,0,0,57.6-32.1q0-13.05-18.9-13.05H33.9V-66h4.65q16.95.3,16.95-12.15,0-5.4-2.925-8.325A10.642,10.642,0,0,0,44.7-89.4a10.677,10.677,0,0,0-8.55,3.675,16.52,16.52,0,0,0-3.6,9.825H7.5Q8.25-92.7,18-101.7T45.3-110.7Z" transform="translate(-4.575 112.2)"/></svg>