<svg xmlns="http://www.w3.org/2000/svg" xmlns:xlink="http://www.w3.org/1999/xlink" viewBox="0 0 96 96"><defs><style>.a,.b,.c,.e{fill:none;}.a,.b,.c{stroke:#000;}.a{stroke-width:0.9px;opacity:0.7;}.b{stroke-width:0.7px;opacity:0.5;}.c{stroke-width:0.5px;opacity:0.3;}.d{stroke:none;}.f{filter:url(#g);}.g{filter:url(#e);}.h{filter:url(#c);}.i{filter:url(#a);}</style><filter id="a" x="24.5" y="24.5" width="47" height="47" filterUnits="userSpaceOnUse"><feOffset dy="3" input="SourceAlpha"/><feGaussianBlur stdDeviation="3.5" result="b"/><feFlood flood-opacity="0.49"/><feComposite operator="in" in2="b"/><feComposite in="SourceGraphic"/></filter><filter id="c" x="18" y="18" width="60" height="60" filterUnits="userSpaceOnUse"><feOffset dy="3" input="SourceAlpha"/><feGaussianBlur stdDeviation="3" result="d"/><feFlood flood-opacity="0.161"/><feComposite operator="in" in2="d"/><feComposite in="SourceGraphic"/></filter><filter id="e" x="8" y="8" width="80" height="80" filterUnits="userSpaceOnUse"><feOffset dy="3" input="SourceAlpha"/><feGaussianBlur stdDeviation="3" result="f"/><feFlood flood-opacity="0.161"/><feComposite operator="in" in2="f"/><feComposite in="SourceGraphic"/></filter><filter id="g" x="0" y="0" width="96" height="96" filterUnits="userSpaceOnUse"><feOffset dy="3" input="SourceAlpha"/><feGaussianBlur stdDeviation="3" result="h"/><feFlood flood-opacity="0.161"/><feComposite operator="in" in2="h"/><feComposite in="SourceGraphic"/></filter></defs><g transform="translate(-912 -635)"><g class="i" transform="matrix(1, 0, 0, 1, 912, 635)"><circle cx="13" cy="13" r="13" transform="translate(35 32)"/></g><g class="h" transform="matrix(1, 0, 0, 1, 912, 635)"><g class="a" transform="translate(27 24)"><circle class="d" cx="21" cy="21" r="21"/><circle class="e" cx="21" cy="21" r="20.55"/></g></g><g class="g" transform="matrix(1, 0, 0, 1, 912, 635)"><g class="b" transform="translate(17 14)"><circle class="d" cx="31" cy="31" r="31"/><circle class="e" cx="31" cy="31" r="30.65"/></g></g><g class="f" transform="matrix(1, 0, 0, 1, 912, 635)"><g class="c" transform="translate(9 6)"><circle class="d" cx="39" cy="39" r="39"/><circle class="e" cx="39" cy="39" r="38.75"/></g></g></g></svg>