<svg xmlns="http://www.w3.org/2000/svg" xmlns:xlink="http://www.w3.org/1999/xlink" viewBox="0 0 68.298 68.298">
  <defs>
    <style>
      .cls-1 {
        fill: url(#linear-gradient);
      }
    </style>
    <linearGradient id="linear-gradient" x1="0.127" y1="0.115" x2="0.829" y2="0.888" gradientUnits="objectBoundingBox">
      <stop offset="0" stop-color="#005bea"/>
      <stop offset="1" stop-color="#00c6fb"/>
    </linearGradient>
  </defs>
  <path id="Path_212" data-name="Path 212" class="cls-1" d="M58.294-71A32.9,32.9,0,0,0,34.149-81,32.9,32.9,0,0,0,10-71,32.9,32.9,0,0,0,0-46.851,32.9,32.9,0,0,0,10-22.706a32.9,32.9,0,0,0,24.145,10,32.9,32.9,0,0,0,24.145-10,32.9,32.9,0,0,0,10-24.145A32.9,32.9,0,0,0,58.294-71Zm-2,46.288a30.189,30.189,0,0,1-22.144,9.2,30.189,30.189,0,0,1-22.144-9.2A30.189,30.189,0,0,1,2.8-46.851a30.189,30.189,0,0,1,9.2-22.144,30.189,30.189,0,0,1,22.144-9.2,30.189,30.189,0,0,1,22.144,9.2,30.189,30.189,0,0,1,9.2,22.144A30.189,30.189,0,0,1,56.293-24.707Zm-4-38.284a1.2,1.2,0,0,0,0-2,1.2,1.2,0,0,0-2,0L37.084-51.786a8.1,8.1,0,0,0-2.935-.8,5.536,5.536,0,0,0-4.069,1.667,5.536,5.536,0,0,0-1.667,4.069,5.536,5.536,0,0,0,1.667,4.069,5.536,5.536,0,0,0,4.069,1.667,5.536,5.536,0,0,0,4.069-1.667,5.536,5.536,0,0,0,1.667-4.069,8.1,8.1,0,0,0-.8-2.935ZM36.15-44.85a2.715,2.715,0,0,1-2,.8,2.715,2.715,0,0,1-2-.8,2.715,2.715,0,0,1-.8-2,2.715,2.715,0,0,1,.8-2,2.715,2.715,0,0,1,2-.8,2.715,2.715,0,0,1,2,.8,2.715,2.715,0,0,1,.8,2A2.715,2.715,0,0,1,36.15-44.85Zm-23.344-.534a1.3,1.3,0,0,0,1.467-1.467,1.3,1.3,0,0,0-1.467-1.467H7.07q-1.334,0-1.334,1.467T7.07-45.383Zm1.067,5.336-5.2,2.268q-1.334.4-.8,1.868a1.379,1.379,0,0,0,1.334.8.772.772,0,0,0,.534-.133l5.2-2.134q1.334-.4.8-1.868A1.378,1.378,0,0,0,13.873-40.048ZM59.628-37.78l-5.2-2.268a1.378,1.378,0,0,0-1.868.8q-.534,1.467.8,1.868l5.2,2.134a.772.772,0,0,0,.534.133,1.379,1.379,0,0,0,1.334-.8Q60.962-37.38,59.628-37.78Zm1.6-10.538H55.492a1.3,1.3,0,0,0-1.467,1.467,1.3,1.3,0,0,0,1.467,1.467h5.736q1.334,0,1.334-1.467T61.228-48.318Zm-8.671-6.136a1.379,1.379,0,0,0,1.334.8h.534l5.2-2.268q1.334-.4.8-1.868a1.182,1.182,0,0,0-1.868-.667l-5.2,2.134Q52.024-55.922,52.558-54.454ZM41.753-65.259a.772.772,0,0,0,.534.133,1.371,1.371,0,0,0,1.334-.934l2.134-5.2a1.182,1.182,0,0,0-.667-1.868q-1.467-.534-1.868.8l-2.268,5.2A1.378,1.378,0,0,0,41.753-65.259Zm-9.071-2.935a1.3,1.3,0,0,0,1.467,1.467,1.3,1.3,0,0,0,1.467-1.467V-73.93q0-1.334-1.467-1.334T32.682-73.93Zm-8,2.134a1.371,1.371,0,0,0,1.334.934.772.772,0,0,0,.534-.133,1.378,1.378,0,0,0,.8-1.868l-2.268-5.2q-.4-1.334-1.868-.8a1.182,1.182,0,0,0-.667,1.868Zm-4.669,3.068-4-4a1.3,1.3,0,0,0-2,0,1.3,1.3,0,0,0,0,2l4,4a1.537,1.537,0,0,0,1.067.534,1.464,1.464,0,0,0,.934-.534A1.2,1.2,0,0,0,20.009-62.992ZM8.671-55.922l5.2,2.268h.534a1.379,1.379,0,0,0,1.334-.8q.534-1.467-.8-1.868l-5.2-2.134a1.182,1.182,0,0,0-1.868.667Q7.337-56.322,8.671-55.922ZM46.955-35.512H21.343a1.3,1.3,0,0,0-1.467,1.467v8.537a1.3,1.3,0,0,0,1.467,1.467H46.955a1.3,1.3,0,0,0,1.467-1.467v-8.537A1.3,1.3,0,0,0,46.955-35.512Zm-1.467,8.537H22.811v-5.6H45.488Z" transform="translate(0 81)"/>
</svg>
