<svg xmlns="http://www.w3.org/2000/svg" xmlns:xlink="http://www.w3.org/1999/xlink" viewBox="0 0 72.905 73.359"><defs><style>.a{fill:url(#a);}.b{fill:url(#c);}</style><linearGradient id="a" x1="0.19" y1="-0.075" x2="0.943" y2="0.838" gradientUnits="objectBoundingBox"><stop offset="0" stop-color="#005bea"/><stop offset="1" stop-color="#00c6fb"/></linearGradient><linearGradient id="c" x1="-0.949" y1="-0.188" x2="1.118" y2="1.052" xlink:href="#a"/></defs><g transform="translate(0)"><path class="a" d="M65.986,10.6A32.529,32.529,0,0,0,11.248,21.821,5.333,5.333,0,0,0,7.89,23.359L6.527,24.7A16.847,16.847,0,0,0,2.838,43,52.984,52.984,0,0,0,31.947,72.106a16.85,16.85,0,0,0,18.308-3.7l1.322-1.353a5.348,5.348,0,0,0,1.57-3.978A32.533,32.533,0,0,0,65.986,10.6Zm6.243,23.307A30.324,30.324,0,0,1,52.607,60.9a5.34,5.34,0,0,0-1.018-1.429,5.394,5.394,0,0,0-1.017-.8l-8.444-5.03a5.841,5.841,0,0,0-7.124.9l-1.917,1.941a.545.545,0,0,1-.6.116,1.114,1.114,0,0,0-.895,2.041,2.785,2.785,0,0,0,3.085-.592l1.911-1.935a3.612,3.612,0,0,1,4.4-.555l8.433,5.024a3.135,3.135,0,0,1,.571,4.907l-1.323,1.354a14.622,14.622,0,0,1-15.883,3.2A50.757,50.757,0,0,1,4.9,42.156,14.619,14.619,0,0,1,8.1,26.281l1.361-1.338a3.128,3.128,0,0,1,2.36-.9,1.107,1.107,0,0,0,.257.022,3.144,3.144,0,0,1,1.827.891,3.217,3.217,0,0,1,.467.574l5.02,8.412a3.612,3.612,0,0,1-.554,4.4l-1.949,1.942a2.787,2.787,0,0,0-.545,3.078A29.591,29.591,0,0,0,27.49,56.438a1.114,1.114,0,0,0,1.2-1.875,27.369,27.369,0,0,1-10.316-12.1l-.007-.016a.541.541,0,0,1,.1-.593l1.94-1.932A5.84,5.84,0,0,0,21.3,32.8l-5.029-8.427-.015-.024a5.419,5.419,0,0,0-.795-.983,5.331,5.331,0,0,0-1.958-1.24A30.3,30.3,0,0,1,72.228,33.906Z" transform="translate(-1.584 0)"/><g transform="translate(16.948 7.274)"><path class="a" d="M161.966,58.982A25.215,25.215,0,0,0,119.948,66.6a1.114,1.114,0,0,0,2.069.827,22.975,22.975,0,1,1,29.237,30.127,1.114,1.114,0,1,0,.765,2.093,25.211,25.211,0,0,0,9.946-40.666Z" transform="translate(-119.868 -50.769)"/></g><g transform="translate(28.801 23.083)"><path class="b" d="M212.88,176.861a.739.739,0,0,0-.593-.327h-7.121v-.919a2.249,2.249,0,0,1,.811-1.547,14.266,14.266,0,0,1,1.962-1.584q1.15-.786,2.3-1.668a8.355,8.355,0,0,0,1.962-2.151,4.961,4.961,0,0,0,.811-2.72,4.46,4.46,0,0,0-1.514-3.489,5.684,5.684,0,0,0-7.169-.151,3.808,3.808,0,0,0-1.465,3.088q0,1.429,1.163,1.429a1.568,1.568,0,0,0,.981-.288.838.838,0,0,0,.375-.674,2.253,2.253,0,0,1,.678-1.779,2.566,2.566,0,0,1,1.768-.6,2.452,2.452,0,0,1,1.95.761,2.615,2.615,0,0,1,.666,1.777,3.253,3.253,0,0,1-.811,2.031,10.143,10.143,0,0,1-1.974,1.862l-2.325,1.693a9.386,9.386,0,0,0-1.947,1.887,3.488,3.488,0,0,0-.79,2.129v2.346a.707.707,0,0,0,.373.6,1.377,1.377,0,0,0,.758.242h8.563a.721.721,0,0,0,.589-.351,1.352,1.352,0,0,0,.253-.811A1.244,1.244,0,0,0,212.88,176.861Z" transform="translate(-202.599 -161.106)"/></g><g transform="translate(39.434 23.083)"><path class="b" d="M288.058,172.8a.723.723,0,0,0-.642-.36h-1.187v-3.362a.694.694,0,0,0-.376-.633,1.773,1.773,0,0,0-.908-.22q-1.284,0-1.284.853v3.362H280.1l4.989-9.954a.938.938,0,0,0,.121-.388.837.837,0,0,0-.436-.7,1.53,1.53,0,0,0-.848-.291,1.183,1.183,0,0,0-1.114.7l-5.861,11.54a1.1,1.1,0,0,0-.145.532.918.918,0,0,0,.254.683.873.873,0,0,0,.642.252h5.958v3.143a.7.7,0,0,0,.375.622,1.7,1.7,0,0,0,.908.231,1.715,1.715,0,0,0,.9-.231.7.7,0,0,0,.387-.622v-3.143h1.187a.751.751,0,0,0,.605-.372,1.353,1.353,0,0,0,.266-.8A1.525,1.525,0,0,0,288.058,172.8Z" transform="translate(-276.808 -161.105)"/></g></g></svg>