<svg xmlns="http://www.w3.org/2000/svg" xmlns:xlink="http://www.w3.org/1999/xlink" viewBox="0 0 71.752 72.892">
  <defs>
    <style>
      .cls-1 {
        fill: url(#linear-gradient);
      }
    </style>
    <linearGradient id="linear-gradient" x1="0.159" y1="0.081" x2="0.835" y2="1" gradientUnits="objectBoundingBox">
      <stop offset="0" stop-color="#005bea"/>
      <stop offset="1" stop-color="#00c6fb"/>
    </linearGradient>
  </defs>
  <path id="Path_213" data-name="Path 213" class="cls-1" d="M36.5-53.378a9.224,9.224,0,0,0-4.84,1.281,8.8,8.8,0,0,0-4.271,6.122.632.632,0,0,1-.071.285.632.632,0,0,0-.071.285v1.281a8.92,8.92,0,0,0,2.7,6.549,8.92,8.92,0,0,0,6.549,2.7,8.92,8.92,0,0,0,6.549-2.7,8.92,8.92,0,0,0,2.7-6.549,10.745,10.745,0,0,0-.142-1.993,8.327,8.327,0,0,0-3.2-5.2A9.336,9.336,0,0,0,36.5-53.378Zm4.769,14.023A6.476,6.476,0,0,1,36.5-37.433a6.476,6.476,0,0,1-4.769-1.922,6.476,6.476,0,0,1-1.922-4.769v-1a1.093,1.093,0,0,1,.142-.427,6.166,6.166,0,0,1,3.132-4.271,5.807,5.807,0,0,1,3.417-1,6.6,6.6,0,0,1,4.271,1.495,6.184,6.184,0,0,1,2.278,3.773,5.989,5.989,0,0,1,.142,1.424A6.476,6.476,0,0,1,41.271-39.354ZM36.5-63.628a18.688,18.688,0,0,0-10.108,2.847,18.351,18.351,0,0,0-8.969,12.813,4.66,4.66,0,0,0-.285,1.139,16.573,16.573,0,0,0-.142,2.7,18.8,18.8,0,0,0,5.695,13.81A18.8,18.8,0,0,0,36.5-24.62a18.8,18.8,0,0,0,13.81-5.695,18.8,18.8,0,0,0,5.695-13.81,21.042,21.042,0,0,0-.427-4.129,18.784,18.784,0,0,0-6.834-11.033A19.041,19.041,0,0,0,36.5-63.628Zm12.03,31.534A16.36,16.36,0,0,1,36.5-27.182a16.36,16.36,0,0,1-12.03-4.912,16.36,16.36,0,0,1-4.912-12.03,15.668,15.668,0,0,1,.142-2.42l.285-1.139a15.431,15.431,0,0,1,7.83-10.962,16.425,16.425,0,0,1,8.684-2.42,16.592,16.592,0,0,1,10.677,3.773,15.88,15.88,0,0,1,5.837,9.61,14.621,14.621,0,0,1,.427,3.559A16.36,16.36,0,0,1,48.531-32.094ZM63.408-49.818a26.475,26.475,0,0,0-9.61-15.66A26.867,26.867,0,0,0,36.5-71.6a27.365,27.365,0,0,0-14.237,3.986,26.059,26.059,0,0,0-12.671,17.8v.427a4.684,4.684,0,0,0-.285,1.424,31.846,31.846,0,0,0-.285,3.844,26.477,26.477,0,0,0,8.044,19.433A26.477,26.477,0,0,0,36.5-16.647a26.477,26.477,0,0,0,19.433-8.044,26.477,26.477,0,0,0,8.044-19.433A25.093,25.093,0,0,0,63.408-49.818ZM54.084-26.47A24.1,24.1,0,0,1,36.5-19.21,24.1,24.1,0,0,1,18.919-26.47a23.913,23.913,0,0,1-7.332-17.653,24.7,24.7,0,0,1,.285-3.417,5.885,5.885,0,0,1,.071-.783,6.092,6.092,0,0,0,.071-.641l.142-.427A23.046,23.046,0,0,1,23.688-65.336a23.452,23.452,0,0,1,12.813-3.7,24.137,24.137,0,0,1,15.66,5.552,24.31,24.31,0,0,1,8.684,14.094,22.981,22.981,0,0,1,.569,5.268A23.913,23.913,0,0,1,54.084-26.47ZM72.378-44.124a34.717,34.717,0,0,0-.854-7.545A34.608,34.608,0,0,0,59.066-71.956,34.786,34.786,0,0,0,36.5-80a34.615,34.615,0,0,0-18.508,5.268A33.4,33.4,0,0,0,1.479-51.669l-.142.569a12,12,0,0,0-.285,1.993,25.659,25.659,0,0,0-.427,4.983q0,17.084,13.667,28.189l-4.129,7.4,2.278,1.139,3.986-6.976A35.233,35.233,0,0,0,36.5-8.247a35.674,35.674,0,0,0,20.074-6.122l3.986,7.261L62.839-8.39l-4.271-7.545A35.7,35.7,0,0,0,68.676-28.321,34.857,34.857,0,0,0,72.378-44.124Zm-69.19,0q0-1.851.285-4.7L3.9-50.53V-51.1A32.312,32.312,0,0,1,19.275-72.6,32.6,32.6,0,0,1,36.5-77.437a32.424,32.424,0,0,1,20.928,7.474A32.244,32.244,0,0,1,69.1-51.1a38.623,38.623,0,0,1,.712,6.976,32.1,32.1,0,0,1-9.752,23.562A32.1,32.1,0,0,1,36.5-10.81,32.1,32.1,0,0,1,12.94-20.562,32.1,32.1,0,0,1,3.188-44.124Z" transform="translate(-0.625 80)"/>
</svg>
